<?xml version="1.0" encoding="UTF-8"?><svg id="b" xmlns="http://www.w3.org/2000/svg" xmlns:xlink="http://www.w3.org/1999/xlink" viewBox="0 0 948.1019 137.9792"><defs><style>.k{fill:url(#j);}.l{fill:url(#g);}.m{fill:url(#h);}.n{fill:url(#i);}.o{fill:url(#f);}.p{fill:url(#d);}.q{fill:url(#e);}</style><linearGradient id="d" x1="0" y1="-355.5467" x2="128.9116" y2="-355.5467" gradientTransform="translate(0 -286.5572) scale(1 -1)" gradientUnits="userSpaceOnUse"><stop offset="0" stop-color="#3fa025"/><stop offset="1" stop-color="#00b236"/></linearGradient><linearGradient id="e" x1="143.1021" y1="-355.5468" x2="274.1822" y2="-355.5468" xlink:href="#d"/><linearGradient id="f" x1="290.9365" y1="-355.5468" x2="400.3344" y2="-355.5468" xlink:href="#d"/><linearGradient id="g" x1="420.2402" y1="-355.5468" x2="563.147" y2="-355.5468" xlink:href="#d"/><linearGradient id="h" x1="587.1909" y1="-355.5468" x2="722.2134" y2="-355.5468" xlink:href="#d"/><linearGradient id="i" x1="740.147" y1="-355.5468" x2="851.3188" y2="-355.5468" xlink:href="#d"/><linearGradient id="j" x1="805.1958" y1="-355.5468" x2="948.1019" y2="-355.5468" xlink:href="#d"/></defs><g id="c"><path class="p" d="m42.3789,31.7349H0V0h128.9116v31.7349h-42.1821v106.2441h-44.3506V31.7349h0Z"/><path class="q" d="m143.1021,0h76.874C251.5142,0,269.6485,13.798,269.6485,35.2833c0,8.8701-2.3652,15.5718-7.293,20.3027-9.6587,9.2642-23.8506,11.4321-40.9995,11.6294v13.0098c29.7642.7881,40.4082,5.9131,46.7158,30.5522l6.1104,27.2017h-46.1245l-6.3076-32.918c-2.3652-12.418-6.5044-16.3604-17.937-16.3604h-17.7402v49.2783h-42.9707V0h-.0001Zm65.8359,59.7251c9.6582,0,15.9658-5.125,15.9658-13.6006s-6.3076-13.4038-15.9658-13.4038h-22.8652v27.0044h22.8652Z"/><path class="o" d="m290.9365,0h109.3979v33.312h-67.0186v19.5142h53.0234v30.3555h-53.0234v21.2881h67.0186v33.5093h-109.3979V.0002h0Z"/><path class="l" d="m420.2402,0h57.9512l52.8267,99.542,11.8262-7.4902c-13.4033-21.2881-21.4849-40.9995-21.4849-62.8794V.0001h41.7876v137.979h-48.6865l-62.4849-118.0708-12.0239,7.0962c12.418,19.1201,22.0767,44.1533,22.0767,68.7925v42.1821h-41.7881V0h0Z"/><path class="m" d="m587.1909,0h59.7256C691.6616,0,722.2134,26.4132,722.2134,68.398s-31.3408,69.5811-73.5225,69.5811h-61.5V0h0Zm57.7549,104.0757c20.3027,0,31.3408-12.8125,31.3408-35.6777,0-20.894-11.6299-34.6919-30.75-34.6919h-14.5859v70.3696h13.9951,0Z"/><path class="n" d="m740.147,0h44.3506v103.4844h66.8213v34.4946h-111.1719V0Z"/><path class="k" d="m854.4741,86.1383L805.1958,0h47.3066l9.0674,16.9517c7.293,13.9951,9.4609,27.2017,9.4609,44.3506l-.1963,5.7158h13.7979v-4.3364c0-17.543,2.3652-32.7207,10.0527-47.7012L902.5687,0h45.5332l-49.2783,86.1382v51.8408h-44.3496v-51.8408h.0001Z"/></g></svg>